<?xml version="1.0" encoding="UTF-8" standalone="no"?>
<svg width="201px" height="56px" viewBox="0 0 201 56" version="1.1" xmlns="http://www.w3.org/2000/svg" xmlns:xlink="http://www.w3.org/1999/xlink" xmlns:sketch="http://www.bohemiancoding.com/sketch/ns">
    <!-- Generator: Sketch 3.4.2 (15857) - http://www.bohemiancoding.com/sketch -->
    <title>Slice 1</title>
    <desc>Created with Sketch.</desc>
    <defs></defs>
    <g id="Page-1" stroke="none" stroke-width="1" fill="none" fill-rule="evenodd" sketch:type="MSPage">
        <path d="M26.21875,26.71875 C26.21875,31.9271094 25.0937613,36.0520681 22.84375,39.09375 C20.5937387,42.1354319 17.4896031,43.65625 13.53125,43.65625 C10.8854034,43.65625 8.57813484,43.1250053 6.609375,42.0625 C4.64061516,40.9999947 3.10417219,39.5625091 2,37.75 L2,56 L0.3125,56 L0.3125,9.1875 L1.625,9.1875 L1.96875,15.25 C3.09375563,13.1666563 4.62499031,11.5312559 6.5625,10.34375 C8.50000969,9.15624406 10.80207,8.5625 13.46875,8.5625 C17.4479366,8.5625 20.567697,10.1406092 22.828125,13.296875 C25.088553,16.4531408 26.21875,20.7083066 26.21875,26.0625 L26.21875,26.71875 Z M24.5,26.0625 C24.5,21.3749766 23.5573011,17.567723 21.671875,14.640625 C19.7864489,11.713527 17.0625178,10.25 13.5,10.25 C10.2291503,10.25 7.68750906,11.0729084 5.875,12.71875 C4.06249094,14.3645916 2.77083719,16.3854047 2,18.78125 L2,34.59375 C2.8333375,36.8437613 4.22915688,38.63541 6.1875,39.96875 C8.14584312,41.30209 10.6041519,41.96875 13.5625,41.96875 C17.1250178,41.96875 19.8385323,40.5937637 21.703125,37.84375 C23.5677177,35.0937363 24.5,31.38544 24.5,26.71875 L24.5,26.0625 Z M50.3125,10.40625 L48.125,10.21875 C45.1041516,10.21875 42.6510511,11.1926986 40.765625,13.140625 C38.8801989,15.0885514 37.6562528,17.6562341 37.09375,20.84375 L37.09375,43 L35.40625,43 L35.40625,9.1875 L36.78125,9.1875 L37.09375,15.0625 L37.09375,16.21875 C38.0312547,13.8020712 39.4270741,11.9218817 41.28125,10.578125 C43.1354259,9.23436828 45.4166531,8.5625 48.125,8.5625 C48.6041691,8.5625 49.046873,8.59895797 49.453125,8.671875 C49.859377,8.74479203 50.2083319,8.82291625 50.5,8.90625 L50.3125,10.40625 Z M53.375,25.4375 C53.375,20.4791419 54.744778,16.4270991 57.484375,13.28125 C60.223972,10.1354009 63.7812281,8.5625 68.15625,8.5625 C72.5521053,8.5625 76.119778,10.1354009 78.859375,13.28125 C81.598972,16.4270991 82.96875,20.4791419 82.96875,25.4375 L82.96875,26.75 C82.96875,31.7291916 81.598972,35.7916509 78.859375,38.9375 C76.119778,42.0833491 72.5729384,43.65625 68.21875,43.65625 C63.8228947,43.65625 60.2500137,42.0833491 57.5,38.9375 C54.7499863,35.7916509 53.375,31.7291916 53.375,26.75 L53.375,25.4375 Z M55.0625,26.75 C55.0625,31.0000213 56.2499881,34.5989436 58.625,37.546875 C61.0000119,40.4948064 64.1978966,41.96875 68.21875,41.96875 C72.1771031,41.96875 75.3437381,40.4895981 77.71875,37.53125 C80.0937619,34.5729019 81.28125,30.9791878 81.28125,26.75 L81.28125,25.4375 C81.28125,21.2916459 80.0833453,17.7239733 77.6875,14.734375 C75.2916547,11.7447767 72.1146031,10.25 68.15625,10.25 C64.1770634,10.25 61.0000119,11.7447767 58.625,14.734375 C56.2499881,17.7239733 55.0625,21.2916459 55.0625,25.4375 L55.0625,26.75 Z M94.5625,0.0625 L94.5625,9.1875 L102.875,9.1875 L102.875,10.90625 L94.5625,10.90625 L94.5625,34.28125 C94.5625,37.0520972 95.0312453,39.0260358 95.96875,40.203125 C96.9062547,41.3802142 98.1458256,41.96875 99.6875,41.96875 C100.250003,41.96875 100.749998,41.9479169 101.1875,41.90625 C101.625002,41.8645831 102.229163,41.7916672 103,41.6875 L103.3125,43.21875 C102.791664,43.3854175 102.250003,43.4999997 101.6875,43.5625 C101.124997,43.6250003 100.489587,43.65625 99.78125,43.65625 C97.5104053,43.65625 95.7864642,42.9166741 94.609375,41.4375 C93.4322858,39.9583259 92.84375,37.5729331 92.84375,34.28125 L92.84375,10.90625 L86.59375,10.90625 L86.59375,9.1875 L92.84375,9.1875 L92.84375,0.0625 L94.5625,0.0625 Z M122.375,43.65625 C118.520814,43.65625 115.192722,42.0989739 112.390625,38.984375 C109.588528,35.8697761 108.1875,32.0000231 108.1875,27.375 L108.1875,25.375 C108.1875,20.5208091 109.541653,16.5052242 112.25,13.328125 C114.958347,10.1510258 118.302063,8.5625 122.28125,8.5625 C126.093769,8.5625 129.203113,9.8124875 131.609375,12.3125 C134.015637,14.8125125 135.21875,18.1666456 135.21875,22.375 L135.21875,24.96875 L109.875,24.96875 L109.875,25.375 L109.875,27.375 C109.875,31.4583538 111.072905,34.9114442 113.46875,37.734375 C115.864595,40.5573058 118.833316,41.96875 122.375,41.96875 C124.895846,41.96875 127.0052,41.6250034 128.703125,40.9375 C130.40105,40.2499966 131.854161,39.2187569 133.0625,37.84375 L133.96875,39.15625 C132.63541,40.6354241 131.015635,41.7552045 129.109375,42.515625 C127.203115,43.2760455 124.958346,43.65625 122.375,43.65625 L122.375,43.65625 Z M122.28125,10.25 C118.927067,10.25 116.135428,11.4739461 113.90625,13.921875 C111.677072,16.3698039 110.416668,19.427065 110.125,23.09375 L110.21875,23.28125 L133.53125,23.28125 L133.53125,22.25 C133.53125,18.8124828 132.489594,15.9531364 130.40625,13.671875 C128.322906,11.3906136 125.6146,10.25 122.28125,10.25 L122.28125,10.25 Z M165.8125,36.9375 C164.749995,39.0833441 163.234385,40.7395775 161.265625,41.90625 C159.296865,43.0729225 156.906264,43.65625 154.09375,43.65625 C150.614566,43.65625 147.890635,42.4218873 145.921875,39.953125 C143.953115,37.4843627 142.96875,33.6562759 142.96875,28.46875 L142.96875,9.1875 L144.65625,9.1875 L144.65625,28.53125 C144.65625,33.1146063 145.499992,36.4999891 147.1875,38.6875 C148.875008,40.8750109 151.156236,41.96875 154.03125,41.96875 C157.552101,41.96875 160.255199,41.1041753 162.140625,39.375 C164.026051,37.6458247 165.229164,35.3541809 165.75,32.5 L165.75,9.1875 L167.46875,9.1875 L167.46875,43 L166.0625,43 L165.8125,36.9375 Z M198.84375,34.71875 C198.84375,32.9270744 198.078133,31.2968823 196.546875,29.828125 C195.015617,28.3593677 192.343769,27.2083375 188.53125,26.375 C184.510397,25.5208291 181.598967,24.4218817 179.796875,23.078125 C177.994783,21.7343683 177.09375,19.7395966 177.09375,17.09375 C177.09375,14.6770712 178.114573,12.6510498 180.15625,11.015625 C182.197927,9.38020016 184.947899,8.5625 188.40625,8.5625 C192.135435,8.5625 195.072906,9.43749125 197.21875,11.1875 C199.364594,12.9375088 200.385417,15.2187359 200.28125,18.03125 L200.21875,18.21875 L198.78125,18.21875 C198.78125,16.0104056 197.848968,14.1302161 195.984375,12.578125 C194.119782,11.0260339 191.593766,10.25 188.40625,10.25 C185.239568,10.25 182.843758,10.9322848 181.21875,12.296875 C179.593742,13.6614652 178.78125,15.2395744 178.78125,17.03125 C178.78125,18.8020922 179.468743,20.3124937 180.84375,21.5625 C182.218757,22.8125063 184.947896,23.9062453 189.03125,24.84375 C192.802102,25.7187544 195.661449,26.9114508 197.609375,28.421875 C199.557301,29.9322992 200.53125,32.0416531 200.53125,34.75 C200.53125,37.3958466 199.447928,39.5416584 197.28125,41.1875 C195.114573,42.8333416 192.239601,43.65625 188.65625,43.65625 C184.71873,43.65625 181.63022,42.7760505 179.390625,41.015625 C177.15103,39.2551995 176.104166,37.1145959 176.25,34.59375 L176.3125,34.40625 L177.6875,34.40625 C177.854168,37.07293 178.999989,38.9999941 181.125,40.1875 C183.250011,41.3750059 185.760402,41.96875 188.65625,41.96875 C191.781266,41.96875 194.260408,41.2395906 196.09375,39.78125 C197.927093,38.3229094 198.84375,36.6354262 198.84375,34.71875 L198.84375,34.71875 Z" id="proteus" fill="#1E2B34" sketch:type="MSShapeGroup"></path>
    </g>
</svg>